<?xml version="1.0" standalone="no"?>
<!DOCTYPE svg PUBLIC "-//W3C//DTD SVG 20010904//EN"
 "http://www.w3.org/TR/2001/REC-SVG-20010904/DTD/svg10.dtd">
<svg version="1.0" xmlns="http://www.w3.org/2000/svg"
 width="260.000000pt" height="260.000000pt" viewBox="0 0 260.000000 260.000000"
 preserveAspectRatio="xMidYMid meet">
<metadata>
Created by potrace 1.11, written by Peter Selinger 2001-2013
</metadata>
<g transform="translate(0.000000,260.000000) scale(0.100000,-0.100000)"
fill="#000000" stroke="none">
<path d="M168 2584 c-65 -20 -133 -89 -153 -156 -23 -78 -23 -2178 0 -2256 21
-69 88 -136 157 -157 78 -23 2178 -23 2256 0 69 21 136 88 157 157 23 78 23
2178 0 2256 -21 69 -88 136 -157 157 -75 22 -2187 21 -2260 -1z m691 -309
c124 -26 311 -45 441 -45 130 0 317 19 441 45 92 20 135 19 185 -4 77 -35 91
-110 49 -252 -14 -46 -39 -138 -56 -204 -18 -71 -38 -129 -50 -141 -44 -47
-198 -75 -300 -55 -67 14 -162 56 -215 96 -43 33 -65 32 -117 -6 -107 -78
-239 -111 -357 -91 -96 16 -141 39 -162 82 -23 49 -118 410 -118 450 0 52 27
97 73 119 50 25 91 26 186 6z m516 -635 c123 -82 260 -109 385 -75 102 27 106
27 102 -20 -5 -54 -17 -65 -72 -65 -112 0 -264 -38 -545 -138 -186 -66 -311
-94 -400 -90 l-70 3 -12 105 c-6 58 -16 130 -21 160 -6 30 -7 59 -2 64 4 4 32
0 62 -10 39 -14 80 -19 153 -18 115 0 177 20 273 84 31 22 64 39 72 39 8 0 42
-18 75 -39z m233 -352 c2 -85 0 -107 -13 -118 -13 -11 -15 1 -15 110 0 93 3
121 13 118 8 -3 13 -37 15 -110z m172 -44 c0 -41 -4 -54 -15 -54 -11 0 -15 13
-15 53 0 30 3 57 6 60 15 15 24 -8 24 -59z m54 -46 c-3 -5 -9 -8 -15 -8 -11 0
-12 103 -1 114 8 9 23 -94 16 -106z m-116 47 c-4 -66 -22 -78 -26 -16 -4 49 2
71 18 71 7 0 10 -20 8 -55z m-55 -10 c0 -28 -5 -51 -12 -53 -7 -2 -11 15 -11
53 0 38 4 55 11 53 7 -2 12 -25 12 -53z m-115 -22 c-4 -77 -28 -86 -28 -10 0
29 3 57 7 60 17 18 24 2 21 -50z m-230 -53 c-2 -56 -7 -85 -15 -88 -10 -3 -13
19 -13 86 0 49 3 92 7 96 16 16 24 -17 21 -94z m170 33 c-4 -77 -28 -86 -28
-10 0 29 3 57 7 60 17 18 24 2 21 -50z m-60 -18 c-4 -66 -22 -78 -26 -16 -4
49 2 71 18 71 7 0 10 -20 8 -55z m-400 -80 c-2 -76 -7 -110 -15 -113 -10 -3
-13 24 -13 111 0 62 3 117 7 121 17 17 23 -19 21 -119z m350 63 c2 -31 -2 -49
-13 -58 -13 -11 -15 -5 -15 50 0 74 23 81 28 8z m-120 -45 c-4 -77 -28 -86
-28 -10 0 29 3 57 7 60 17 18 24 2 21 -50z m566 44 c11 -8 27 -49 41 -104 13
-50 30 -104 39 -121 16 -30 15 -32 -6 -46 -41 -27 -151 -73 -238 -100 -170
-54 -361 -69 -540 -42 -177 27 -430 125 -430 167 0 11 3 19 8 19 4 1 59 2 122
4 132 4 239 28 445 101 240 86 335 112 470 128 60 8 71 7 89 -6z m-626 -62
c-4 -66 -22 -78 -26 -16 -4 49 2 71 18 71 7 0 10 -20 8 -55z m-58 -19 c0 -48
-9 -74 -21 -62 -8 8 3 116 12 116 5 0 9 -24 9 -54z m-52 -21 c-4 -70 -28 -72
-28 -2 0 29 3 57 7 61 14 14 24 -13 21 -59z m-118 -25 c0 -47 -3 -60 -15 -60
-11 0 -15 13 -15 53 0 30 3 57 7 60 17 17 23 2 23 -53z m-60 -11 c0 -44 -3
-60 -12 -57 -13 5 -23 80 -14 104 13 34 26 10 26 -47z m-110 -4 c0 -42 -3 -55
-15 -55 -12 0 -15 13 -15 55 0 42 3 55 15 55 12 0 15 -13 15 -55z m54 0 c0
-29 -5 -50 -12 -53 -8 -2 -12 13 -12 53 0 40 4 55 12 53 7 -3 12 -24 12 -53z
m-114 -20 c0 -19 -4 -35 -10 -35 -11 0 -13 30 -4 54 10 25 14 19 14 -19z m11
-206 c153 -76 375 -129 549 -129 174 0 396 53 549 129 95 49 101 45 101 -73 0
-96 -34 -168 -100 -209 -25 -16 -107 -69 -184 -117 -194 -124 -246 -145 -366
-144 -114 0 -175 22 -315 114 -49 32 -128 80 -174 107 -124 71 -160 128 -161
259 0 65 10 94 32 94 5 0 36 -14 69 -31z"/>
<path d="M1275 1006 c-32 -48 1 -116 43 -90 9 6 18 23 20 38 4 28 -21 76 -38
76 -5 0 -17 -11 -25 -24z"/>
</g>
</svg>
