<svg xmlns="http://www.w3.org/2000/svg" viewBox="0 0 347.2 198.59"><defs><style>.cls-1{fill:#666;}</style></defs><title>arrow-down-grey</title><g id="Слой_2" data-name="Слой 2"><g id="Layer_1" data-name="Layer 1"><path class="cls-1" d="M173.05,130.8c14.31-14.38,27.44-27.61,40.61-40.8,26-26,52.53-51.62,77.91-78.28,13.83-14.52,32.68-16.07,47,.41,8.83,10.16,11.67,22.85,4.86,33.81-2.84,4.58-7,8.4-10.9,12.27-31.3,31.35-89.27,89.73-125.82,126.7a46.09,46.09,0,0,1-65.43.11C102.31,145.9,39.87,83.29,9.41,52.85-3.11,40.34-3.1,24.53,9.23,11.76,15.79,5,22.8-.53,33.37,0A29.35,29.35,0,0,1,52.45,8.81C91.13,47.61,171.28,128.5,173.05,130.8Z"/></g></g></svg>