<svg xmlns="http://www.w3.org/2000/svg" viewBox="0 0 198.59 347.2"><defs><style>.cls-1{fill:#ffcb05;}</style></defs><title>arrow-next-white</title><g id="Слой_2" data-name="Слой 2"><g id="Layer_1" data-name="Layer 1"><path class="cls-1" d="M130.8,173.05c-14.38,14.31-27.61,27.44-40.8,40.61-26,26-51.62,52.53-78.28,77.91-14.52,13.83-16.07,32.68.41,47,10.16,8.83,22.85,11.67,33.81,4.86,4.58-2.84,8.4-7,12.27-10.9,31.35-31.3,89.73-89.27,126.7-125.82a46.09,46.09,0,0,0,.11-65.43C145.9,102.31,83.29,39.87,52.85,9.41,40.34-3.11,24.53-3.1,11.76,9.23,5,15.79-.53,22.8,0,33.37A29.35,29.35,0,0,0,8.81,52.45C47.61,91.13,128.5,171.28,130.8,173.05Z"/></g></g></svg>