<svg xmlns="http://www.w3.org/2000/svg" viewBox="0 0 198.59 347.2"><defs><style>.cls-1{fill:#ffcb05;}</style></defs><title>arrow-prev-white</title><g id="Слой_2" data-name="Слой 2"><g id="Layer_1" data-name="Layer 1"><path class="cls-1" d="M67.79,173.05c14.38,14.31,27.61,27.44,40.8,40.61,26,26,51.62,52.53,78.28,77.91,14.52,13.83,16.07,32.68-.41,47-10.16,8.83-22.85,11.67-33.81,4.86-4.58-2.84-8.4-7-12.27-10.9C109,301.22,50.65,243.25,13.68,206.7a46.09,46.09,0,0,1-.11-65.43C52.69,102.31,115.3,39.87,145.74,9.41c12.51-12.52,28.32-12.51,41.09-.18,6.79,6.56,12.29,13.57,11.72,24.14a29.35,29.35,0,0,1-8.77,19.08C151,91.13,70.09,171.28,67.79,173.05Z"/></g></g></svg>