<svg xmlns="http://www.w3.org/2000/svg" viewBox="0 0 347.2 198.59"><defs><style>.cls-1{fill:#666;}</style></defs><title>arrow-up-grey</title><g id="Слой_2" data-name="Слой 2"><g id="Layer_1" data-name="Layer 1"><path class="cls-1" d="M173.05,67.79c14.31,14.38,27.44,27.61,40.61,40.8,26,26,52.53,51.62,77.91,78.28,13.83,14.52,32.68,16.07,47-.41,8.83-10.16,11.67-22.85,4.86-33.81-2.84-4.58-7-8.4-10.9-12.27C301.22,109,243.25,50.65,206.7,13.68a46.09,46.09,0,0,0-65.43-.11C102.31,52.69,39.87,115.3,9.41,145.74c-12.52,12.51-12.51,28.32-.18,41.09,6.56,6.79,13.57,12.29,24.14,11.72a29.35,29.35,0,0,0,19.08-8.77C91.13,151,171.28,70.09,173.05,67.79Z"/></g></g></svg>