<svg xmlns="http://www.w3.org/2000/svg" viewBox="0 0 451.37 346.27"><defs><style>.cls-1{fill:#666;}</style></defs><title>camera-icon</title><g id="Слой_2" data-name="Слой 2"><g id="Layer_1" data-name="Layer 1"><path class="cls-1" d="M123.51,70.27c1.4-14.71,3.27-28.68,9.28-41.69,5-10.84,11.75-20.29,23-25.21a37.52,37.52,0,0,1,14.4-3c38-.24,76,.49,114-.34,27-.59,42.08,13.12,50.33,33.25,3.92,9.58,5.67,20.05,8.32,30.14.54,2.06.73,4.22,1.16,6.74h18.6c14.33,0,28.66.18,43,0,28.17-.44,42.14,20.63,45.18,40.61a73.31,73.31,0,0,1,.63,11q0,87.23,0,174.45c0,30.73-19.28,50.14-50.12,50.15q-166.44,0-332.89-.07c-11,0-22.07.43-32.89-1C13.45,342.28-.62,323.91,0,301.65c.51-17.95.08-35.92.13-53.89,0-18.14.21-36.27.26-54.41.08-25.62-.32-51.24.29-76.84.58-24.23,18.56-43.32,42.94-45.07,18.91-1.35,37.94-.89,56.92-1.16C108,70.18,115.53,70.27,123.51,70.27ZM329.77,204.32A105.76,105.76,0,0,0,223.64,98.08c-58.41,0-105.89,47.34-105.92,105.5,0,58.56,47.36,106.34,105.7,106.56S329.73,262.55,329.77,204.32Zm41.27-40a19.57,19.57,0,0,0,19.6-19.68c-.11-10.32-9.38-19.36-19.74-19.25A19.72,19.72,0,0,0,351.69,145,19.21,19.21,0,0,0,371,164.33Z"/><path class="cls-1" d="M223.78,134.2a69.8,69.8,0,0,1,69.94,69.62c0,38.64-31.72,70.37-70.16,70.16a69.89,69.89,0,0,1,.22-139.78Z"/></g></g></svg>