<svg xmlns="http://www.w3.org/2000/svg" viewBox="0 0 412.33 480.76"><defs><style>.cls-1{fill:#666;}</style></defs><title>input-number-info-icon-height</title><g id="Слой_2" data-name="Слой 2"><g id="Layer_1" data-name="Layer 1"><path class="cls-1" d="M43,151.6H35.57c-.1,1.93-.29,3.83-.29,5.74,0,27.5,0,55,0,82.49,0,8.66-.3,17.32-.6,26-.31,9-7.19,15.14-17,15.31C9,281.26,1.37,275,1,266.58c-.64-13.31-1-26.65-1-40,.07-29.83.66-59.65.66-89.48,0-24.7,20-43.32,37.69-47.05a81.75,81.75,0,0,1,16.37-1.55c26.16-.14,52.33.12,78.49-.09,19.16-.15,34.1,7.53,45.1,23.05,5,7.09,8.13,15.16,8.18,23.72.27,43.47.2,86.94.05,130.41,0,8.23-5.52,13.53-14.5,15.19-7.39,1.36-16-2.8-18.78-9.33a14.27,14.27,0,0,1-.59-5.35q-.22-54.24-.38-108.49c0-2,0-3.91,0-6h-7.75c0,2.25,0,4.35,0,6.46q-.1,136.48-.23,273c0,9.66-.59,19.32-.71,29-.09,8-3.08,14.1-10.3,18-9.21,5-23.51,3.08-30.25-4.88a19.82,19.82,0,0,1-4.25-10.68c-.83-10.95-1.09-22-1.11-32.94q-.16-71.24,0-142.48v-6.33h-8c0,2,0,3.9,0,5.85q0,81.24-.09,162.48c0,4.16-.49,8.33-.37,12.48.27,9.08-9.15,17.75-18.18,18.86-12,1.48-22.77-3.37-26.15-12.65-1.15-3.16-1.17-6.85-1.18-10.3Q43.28,308.22,43,159C43,156.7,43,154.4,43,151.6Z"/><path class="cls-1" d="M133.28,40.27c2.22,22.8-20,40.88-41.21,40.16-21.5-.73-37.05-17.86-38-41C53.19,16.92,74.34,0,93.66,0,113.23,0,135.12,16.69,133.28,40.27Z"/><path class="cls-1" d="M303.55,411.71V320.45h40V411c4.25-4.17,7.81-7.57,11.27-11.07,7.72-7.82,15.32-15.78,23.11-23.54,8.3-8.27,20.44-8.26,28.59-.15,7.76,7.73,7.77,20-.24,28.23q-33.6,34.59-67.36,69c-9.63,9.81-21.44,9.58-31.16-.26q-31.27-31.63-62.59-63.2c-5.57-5.63-7.83-12.38-5.77-20.07s7.24-12.64,15.07-14.36c7.42-1.63,13.8.7,19.09,6.05q13.35,13.5,26.66,27C301,409.5,301.87,410.2,303.55,411.71Z"/><path class="cls-1" d="M343.5,67.28v82.35H303.63V73.27C294.68,82,286.36,90,278.16,98.2c-7.4,7.35-17.26,9.05-25.45,4.19-11.55-6.86-13.34-21.66-3.6-31.6Q277.95,41.34,307,12.11c1.52-1.54,3-3.1,4.54-4.64C321-2.21,332.94-2.59,342.34,7q30.44,31,60.52,62.37c7.31,7.6,6.88,20-.57,27.55a19.63,19.63,0,0,1-27.49.53c-8.86-8.55-17.35-17.5-26-26.32-1.38-1.42-2.55-3-3.82-4.56Z"/></g></g></svg>