<svg xmlns="http://www.w3.org/2000/svg" viewBox="0 0 387.92 502.25"><defs><style>.cls-1{fill:#666;}</style></defs><title>input-number-info-icon-weight</title><g id="Слой_2" data-name="Слой 2"><g id="Layer_1" data-name="Layer 1"><path class="cls-1" d="M56.4,115.09c.25,68.43,52.66,126.53,122,135.64V501.85c-2,.09-3.8.23-5.58.24-36.33,0-72.67-.54-109,.16-35,.67-64-27.62-63.85-64.19.44-86.82.12-173.65.14-260.47,0-31.11,20.54-56,51-62C52.76,115.3,54.42,115.28,56.4,115.09ZM91.45,318l-.13.94a64.29,64.29,0,0,0-6.49,0C69.13,320.57,55.55,326.31,48,341c-7.37,14.44-10.22,30.19-6.27,46,5.59,22.38,16.24,42.79,28,62.49,4.31,7.2,11.38,11.42,19.41,14,13.16,4.3,37.54-5.76,35.83-26.7-.5-6.1-2-12.13-2.35-18.24-.56-8.56-1.73-17.33-.48-25.69,1.46-9.75,5.19-19.16,8-28.7,5.74-19.26-2.79-36.57-21.77-43C103,319.43,97.14,319,91.45,318Zm46.89-29.28c-.08-1.54-.06-3.05-.25-4.53-1.59-12.16-12.47-19.71-22.67-15.77-15.22,5.88-19.58,30.44-7.32,41.21a15.75,15.75,0,0,0,19.82.63C135.26,305,138.13,297.46,138.34,288.72ZM67.85,293.5c0,6.72,3.43,13,8.37,15.3,3.79,1.76,7.45,1.53,10.75-1,5.53-4.32,6.23-10.31,5.09-16.64-1.26-6.94-7.63-12.52-13.24-12C72.48,279.72,67.87,285.77,67.85,293.5ZM64.1,307.07c.15-7.28-4.69-13.41-10.59-13.41-5,0-8.55,4.22-8.64,10.25-.1,6.71,5,13.15,10.42,13.18C60.44,317.12,64,313.09,64.1,307.07Zm-19,17C45.16,318.3,40.78,313,36,313c-4.27,0-7.54,3.77-7.61,8.76-.08,5.77,4.19,11.27,8.89,11.45C41.59,333.33,45.1,329.28,45.13,324.11Zm-10.9,19.72c0-5.43-4.6-10.33-9.5-10.21-4,.1-6.56,3-6.46,7.29.13,5.3,4.9,10.39,9.61,10.26C31.8,351.06,34.27,348.21,34.23,343.82Z"/><path class="cls-1" d="M331.9,115a59.42,59.42,0,0,1,39,19,60.18,60.18,0,0,1,17,42.52q.11,132.2,0,264.41A61.18,61.18,0,0,1,327.32,502c-37.82.3-75.64.08-113.46.07-1.29,0-2.58-.21-4.42-.38v-8.59q0-118.46-.08-236.91c0-4.3,1-5.68,5.61-6.37,57.91-8.65,104.33-54.42,114.2-112.33C330.4,130.33,330.95,123,331.9,115Zm10.34,257.9c-.38-3.64-.55-7.31-1.18-10.91-2.42-13.76-6.55-26.64-19.67-34.23-14.15-8.19-29.25-10.71-45.17-6.65-14.75,3.76-24.76,16.66-24.22,32,.24,6.9,1.77,13.83,3.43,20.57,3.58,14.58,5.53,29,.48,43.71-1.55,4.52-2.17,9.35-3.36,14-4.3,16.87,7.37,27.89,18.83,31.76,14.2,4.79,29.37-1.62,38.54-16.64,7.88-12.91,15.33-26.09,22.66-39.33C338.44,396.6,342.08,385.25,342.24,372.93Zm-72.38-60.61a16.16,16.16,0,0,0,13.12-7c7.33-10,6.08-24.9-2.83-33.93-7.7-7.8-18.56-7.07-25,1.77-5,6.78-5.78,14.42-3.81,22.34C253.81,305.47,261.54,312.31,269.86,312.32Zm51.11-16c-.3-8.14-4.16-14.1-10.21-15.09-5.62-.92-11.56,3.48-14,10.49a18.58,18.58,0,0,0-1,4.84c-.47,7.44,2.8,13,8.5,14.68,5.53,1.63,10-.74,13.93-7.72C319.46,301.29,320.07,298.71,321,296.3Zm21.6,11.84c.35-5.81-3.18-10.31-8.24-10.49-5.61-.2-11,5.62-11.36,12.35-.35,5.83,3.1,10.51,8,10.82C336.62,321.17,342.15,315.16,342.56,308.14Zm14.93,19.35c-.09-5.56-3.16-9.41-7.49-9.38-4.79,0-9.38,5.85-9.25,11.73.11,5.11,2.92,8.43,7.16,8.48C352.55,338.37,357.58,332.69,357.5,327.49Zm-7.63,22.18c-.18,4.28,2.35,7.27,6.27,7.43,4.76.19,9.71-4.81,9.95-10,.19-4.32-2.32-7.22-6.33-7.31C354.6,339.66,350.09,344.17,349.86,349.67Z"/><path class="cls-1" d="M193.61,0C255.93-.49,309.39,51.08,307.9,117.12c-1.33,59-49.23,111.39-114,111.69-63.68.29-115.48-51.61-115.21-114.63A114.14,114.14,0,0,1,193.61,0Zm-.92,207.27c52.4.18,94.2-41.19,94.35-93.39C287.19,63,244.91,21.23,193,21c-50-.18-92.88,41.48-93.1,90.51C99.71,165.33,140.17,207.09,192.69,207.27Z"/><path class="cls-1" d="M229.08,115c-.18,13.57-9.61,24.63-22.36,25.81-11.68,1.09-26.1-3.61-29.48-20.15A93.08,93.08,0,0,0,172,104c-5.28-12.86-13.91-23.36-24-32.82-5.43-5.11-5.25-10,.23-13.65,3.46-2.34,6.82-2.41,10,.63,3.58,3.48,7.19,6.94,10.73,10.47,10.46,10.42,23.14,16.53,37.47,19.56C221.16,91.34,229.27,101,229.08,115Z"/></g></g></svg>