<svg xmlns="http://www.w3.org/2000/svg" viewBox="0 0 85.86 125.02"><defs><style>.cls-1,.cls-2,.cls-3,.cls-4{fill:none;stroke-miterlimit:10;stroke-width:4px;}.cls-1{stroke:#868686;}.cls-2,.cls-3,.cls-4{stroke:#f2ca30;}.cls-3{stroke-dasharray:9.41 4.71;}.cls-4{stroke-dasharray:10.04 5.02;}</style></defs><title>item-01-icon-3</title><g id="Слой_2" data-name="Слой 2"><g id="Layer_1" data-name="Layer 1"><path class="cls-1" d="M60.26,24.18c-2.44.93-3.46,1.45-4.73.95-1.87-.75-7.7-3.25-12.6-11.75S36.9.5,36.9.5"/><path class="cls-1" d="M47.69,88.87c7.5,1,13.42.57,18.33-2.66,6.33-4.17,15.2-9.48,17.17-28.5C86.3,27.64,77.84,22.09,71,21.82"/><path class="cls-1" d="M63.86,124.87s-.5-17.17-3-21.67S54.53,93.87,45,93.87,31.61,98,29.19,100.71c-4.83,5.5-8.69,2.79-10.06,1.57-2.56-2.3-4.68-7.84-6.11-13.9-2-8.5-1.67-16.33-.33-16.83s2.17.17,4.33,2.67c1.73,2,8.53,7.67,16.42,11.08"/><path class="cls-1" d="M28.53.5c0,15,11.34,27.75,11.34,45.9,0,4.65.79,8.53-3.09,10.47-5,2.5-18.12-4.62-22.25-4.25S3,56.54,2.19,68s1,30.67,6,38,13.5,11.17,22.17,5.83,10-8.5,16-6.83S51,124.87,51,124.87"/><path class="cls-2" d="M60.26,24.18A27.54,27.54,0,0,1,61.41,29"/><path class="cls-3" d="M61.88,33.71A51.24,51.24,0,0,1,55.7,60C50,71,43.87,77.48,39.51,81.15"/><path class="cls-2" d="M37.66,82.62a24.72,24.72,0,0,1-4.21,2.67"/><path class="cls-2" d="M71,21.82s.47,1.85,1,4.9"/><path class="cls-4" d="M72.56,31.7c.65,6.6.78,15.64-1.6,24.34C68,66.82,59,77.52,53.09,83.65"/><path class="cls-2" d="M51.32,85.44c-2.19,2.17-3.63,3.43-3.63,3.43"/></g></g></svg>