<svg xmlns="http://www.w3.org/2000/svg" viewBox="0 0 109.74 125.57"><defs><style>.cls-1,.cls-2{fill:none;stroke-miterlimit:10;stroke-width:4px;}.cls-1{stroke:#868686;}.cls-2{stroke:#f2ca30;}</style></defs><title>item-01-icon-1</title><g id="Слой_2" data-name="Слой 2"><g id="Layer_1" data-name="Layer 1"><path class="cls-1" d="M44.58,16.53c11.74-4.25-2.39-6.94-7.68-15.48"/><path class="cls-1" d="M63.86,125.43s-.5-17.17-3-21.67S54.53,94.43,45,94.43s-13.42,4.09-15.83,6.83c-4.83,5.5-8.69,2.79-10.06,1.57-2.56-2.3-4.68-7.84-6.11-13.9-2-8.5-1.67-16.33-.33-16.83s2.17.17,4.33,2.67S30.19,85.93,40,88.09s19.67,2.83,26-1.33,15.2-9.48,17.17-28.5C87.36,17.93,70.4,21.68,64.9,23.18s-7.5,3.25-9.37,2.5a20.26,20.26,0,0,1-3.64-1.89"/><path class="cls-1" d="M37.69,32.8A50.06,50.06,0,0,1,39.87,47c0,4.65.79,8.53-3.09,10.47-5,2.5-18.12-4.62-22.25-4.25S3,57.09,2.19,68.59s1,30.67,6,38,13.5,11.17,22.17,5.83,10-8.5,16-6.83S51,125.43,51,125.43"/><path class="cls-1" d="M28.53,1.05c5.61,10-5.33,26.62,5.61,21.64"/><path class="cls-2" d="M32.37,23.74l14.05-8.29A1.53,1.53,0,0,1,48.5,16l3.56,6a1.53,1.53,0,0,1-.5,2.07L37.7,32.79a1.53,1.53,0,0,1-2.13-.52l-3.75-6.45A1.53,1.53,0,0,1,32.37,23.74Z"/><path class="cls-2" d="M40.53,18.92s-2.06,3.3-.53,6.17,7.07,1.8,7.07,1.8"/><path class="cls-2" d="M50.25,18.92S77.7,2.3,90.7,27.12,69.86,58,68.86,73.89s23,32.21,23,32.21"/><circle class="cls-2" cx="98.41" cy="111.5" r="9.33"/></g></g></svg>