<svg xmlns="http://www.w3.org/2000/svg" viewBox="0 0 88.01 125.02"><defs><style>.cls-1,.cls-2{fill:none;stroke-miterlimit:10;stroke-width:4px;}.cls-1{stroke:#868686;}.cls-2{stroke:#f2ca30;}</style></defs><title>item-01-icon-2</title><g id="Слой_2" data-name="Слой 2"><g id="Layer_1" data-name="Layer 1"><path class="cls-1" d="M63.86,124.87s-.5-17.17-3-21.67S54.53,93.87,45,93.87,31.61,98,29.19,100.71c-4.83,5.5-8.69,2.79-10.06,1.57-2.56-2.3-4.68-7.84-6.11-13.9-2-8.5-1.67-16.33-.33-16.83s2.17.17,4.33,2.67S30.19,85.37,40,87.54s19.67,2.83,26-1.33,17.86-9.46,19.64-28.5c4-42.83-28.26-31.83-30.14-32.58s-7.7-3.25-12.6-11.75S36.9.5,36.9.5"/><path class="cls-1" d="M28.53.5c0,15,11.34,27.75,11.34,45.9,0,4.65.79,8.53-3.09,10.47-5,2.5-18.12-4.62-22.25-4.25S3,56.54,2.19,68s1,30.67,6,38,13.5,11.17,22.17,5.83,10-8.5,16-6.83S51,124.87,51,124.87"/><circle class="cls-2" cx="62.52" cy="46.43" r="19.17"/></g></g></svg>