<svg xmlns="http://www.w3.org/2000/svg" viewBox="0 0 277.14 406.15"><defs><style>.cls-1{fill:#ffcb05;}</style></defs><title>logo</title><g id="Слой_2" data-name="Слой 2"><g id="Layer_1" data-name="Layer 1"><path class="cls-1" d="M257.46,292c-27.34,14.89-68.53,31-118.89,31S47,306.89,19.69,292c-4.09-2.23-8.34-.51-9.14,4.06C6,321.58,12.33,346.78,36.49,357.78c26.3,12,61.18,48.38,102.08,48.38s75.78-36.4,102.08-48.38c24.17-11,30.46-36.2,25.95-61.71C265.79,291.49,261.54,289.77,257.46,292Z"/><path class="cls-1" d="M21,113.61c1,4.53,5.1,10.07,9.33,12a93.13,93.13,0,0,0,38.75,8.7c28.68,0,51-14.05,63-23.77a10.32,10.32,0,0,1,12.7,0c12.1,9.71,34.46,23.81,63.19,23.81a93.16,93.16,0,0,0,38.75-8.7c4.23-1.93,8.29-7.47,9.32-12,5.47-24.05,12-47.61,18.15-67.8C284.38,12.48,267.18-5.47,233,1.48c-27.8,5.67-61.75,10.71-94.48,10.71s-66.68-5-94.48-10.71C10-5.47-7.24,12.48,2.88,45.81,9,66,15.56,89.56,21,113.61Z"/><path class="cls-1" d="M18.75,269.91c-.35.88-.71,1.74-1.08,2.59-.25.59-.49,1.18-.73,1.77-.39,1,2.58,3.66,6.69,5.81C50.89,294.34,90.54,309,138.57,309s87.68-14.65,114.93-28.91c4.12-2.15,7.08-4.82,6.7-5.81-.24-.59-.48-1.19-.74-1.77a188.7,188.7,0,0,1-12.79-42.82A8.46,8.46,0,0,0,239,222.8c-70.9-1.72-141.8,53.91-212.7,45.47C22.71,267.84,19.33,268.47,18.75,269.91Zm119.82,3.74c-4.64,0-8.41-4.42-8.41-9.88s3.76-13.56,8.41-13.56,8.41,8.1,8.41,13.56S143.22,273.65,138.57,273.65Z"/><path class="cls-1" d="M47.44,240.8a3,3,0,0,0-2.87,3v17.71a2.74,2.74,0,0,0,2.86,2.77,3,3,0,0,0,2.86-3v-17.7A2.69,2.69,0,0,0,47.44,240.8Z"/><path class="cls-1" d="M248.82,154.59q.91-5.48,1.95-11c.86-4.56-1.72-6.46-6-4.62A92.34,92.34,0,0,1,208,146.79c-28.78,0-51.16-14.14-63.14-23.85a10.22,10.22,0,0,0-12.66,0c-12,9.71-34.36,23.85-63.14,23.85A92.39,92.39,0,0,1,32.36,139c-4.26-1.84-6.84.06-6,4.62,3.69,19.73,6.27,39.09,6.9,56.54A7.06,7.06,0,0,0,40,207c67,.65,134.09-49,201.13-46.28A7.5,7.5,0,0,0,248.82,154.59Z"/><path class="cls-1" d="M27.4,260.76V250.59c0-3.66-.72-3.75-1.75-.24q-.71,2.42-1.46,4.76c-1.12,3.48-1.84,7-1.14,7.52a3,3,0,0,0,1.46.64A2.47,2.47,0,0,0,27.4,260.76Z"/><path class="cls-1" d="M239.16,197.42v17.71a3,3,0,0,0,2.86,3,2.66,2.66,0,0,0,1.75-.53c.82-.63.67-4.49.41-8.14-.31-4.42-.49-8.94-.49-13.6,0-.08,0-.15,0-.23s-.31-.51-.78-.72a2.53,2.53,0,0,0-.89-.21A2.73,2.73,0,0,0,239.16,197.42Z"/><path class="cls-1" d="M58.9,239.87A3.28,3.28,0,0,0,56,243v17.71a2.5,2.5,0,0,0,2.85,2.55,3.33,3.33,0,0,0,2.88-3.23V242.37A2.47,2.47,0,0,0,58.9,239.87Z"/><path class="cls-1" d="M36,240.83a2.7,2.7,0,0,0-2.86,2.72v17.71a3,3,0,0,0,2.86,3,2.76,2.76,0,0,0,2.87-2.78V243.77A3,3,0,0,0,36,240.83Z"/><path class="cls-1" d="M196.31,176.05l-.15,0a3.79,3.79,0,0,0-2.78,3.53v41.14a2.16,2.16,0,0,0,2.79,2.2l.15,0a3.76,3.76,0,0,0,2.79-3.49V178.28A2.18,2.18,0,0,0,196.31,176.05Z"/><path class="cls-1" d="M184.9,202.4l-.2.06a4,4,0,0,0-2.76,3.64V223.8a2.05,2.05,0,0,0,2.75,2.08l.21-.06a4,4,0,0,0,2.76-3.62V204.5A2.07,2.07,0,0,0,184.9,202.4Z"/><path class="cls-1" d="M173.48,205.77l-.26.08a4.14,4.14,0,0,0-2.73,3.72v17.71a2,2,0,0,0,2.73,2l.26-.08a4.12,4.12,0,0,0,2.73-3.7V207.79A2,2,0,0,0,173.48,205.77Z"/><path class="cls-1" d="M207.73,197.14a3.58,3.58,0,0,0-2.9,3.4v17.71a2.3,2.3,0,0,0,2.82,2.34,3.54,3.54,0,0,0,2.91-3.35V199.52A2.33,2.33,0,0,0,207.73,197.14Z"/><path class="cls-1" d="M162,209.49l-.3.1a4.28,4.28,0,0,0-2.71,3.79v17.71a1.92,1.92,0,0,0,2.71,1.94l.3-.1a4.25,4.25,0,0,0,2.72-3.77V211.43A1.93,1.93,0,0,0,162,209.49Z"/><path class="cls-1" d="M230.58,194.62a3,3,0,0,0-2.86,3v17.71a2.71,2.71,0,0,0,2.85,2.73,3,3,0,0,0,2.87-2.95V197.4A2.76,2.76,0,0,0,230.58,194.62Z"/><path class="cls-1" d="M219.15,195.48a3.3,3.3,0,0,0-2.88,3.21V216.4a2.48,2.48,0,0,0,2.84,2.52,3.26,3.26,0,0,0,2.89-3.16V198A2.52,2.52,0,0,0,219.15,195.48Z"/><path class="cls-1" d="M70.37,238.14a3.56,3.56,0,0,0-2.91,3.37v17.71a2.32,2.32,0,0,0,2.82,2.37,3.6,3.6,0,0,0,2.9-3.41V240.47A2.28,2.28,0,0,0,70.37,238.14Z"/><path class="cls-1" d="M93.33,232.76l-.21.06a4,4,0,0,0-2.76,3.62v17.71a2.07,2.07,0,0,0,2.76,2.11l.22-.06a4,4,0,0,0,2.75-3.65V234.84A2,2,0,0,0,93.33,232.76Z"/><path class="cls-1" d="M104.8,229.34l-.26.08a4.13,4.13,0,0,0-2.74,3.71v17.71a2,2,0,0,0,2.74,2l.26-.09a4.15,4.15,0,0,0,2.73-3.73V231.33A2,2,0,0,0,104.8,229.34Z"/><path class="cls-1" d="M81.85,212.3l-.15,0a3.78,3.78,0,0,0-2.79,3.5V257a2.17,2.17,0,0,0,2.79,2.22l.15,0a3.8,3.8,0,0,0,2.78-3.53V214.49A2.15,2.15,0,0,0,81.85,212.3Z"/><path class="cls-1" d="M139.18,204.93l-.33.12a4.34,4.34,0,0,0-2.7,3.82v30.29a1.88,1.88,0,0,0,2.69,1.9l.34-.12a4.35,4.35,0,0,0,2.69-3.82V206.83A1.89,1.89,0,0,0,139.18,204.93Z"/><path class="cls-1" d="M116.27,225.57l-.31.1a4.25,4.25,0,0,0-2.71,3.78v17.71a1.93,1.93,0,0,0,2.71,1.95l.3-.1a4.27,4.27,0,0,0,2.71-3.79V227.51A1.92,1.92,0,0,0,116.27,225.57Z"/><path class="cls-1" d="M150.62,213.44l-.32.11a4.33,4.33,0,0,0-2.71,3.82v17.71a1.9,1.9,0,0,0,2.71,1.9l.32-.11a4.32,4.32,0,0,0,2.7-3.81V215.35A1.9,1.9,0,0,0,150.62,213.44Z"/><path class="cls-1" d="M127.72,221.6l-.32.11a4.33,4.33,0,0,0-2.7,3.81v17.71a1.9,1.9,0,0,0,2.7,1.91l.32-.11a4.34,4.34,0,0,0,2.7-3.82V223.5A1.89,1.89,0,0,0,127.72,221.6Z"/></g></g></svg>