<svg xmlns="http://www.w3.org/2000/svg" viewBox="0 0 512.01 511.89"><defs><style>.cls-1{fill:#ffffff;}</style></defs><title>search</title><g id="Слой_2" data-name="Слой 2"><g id="Layer_1" data-name="Layer 1"><path class="cls-1" d="M403,358.35q32.28,32.22,64.2,64.08c11.91,11.89,23.88,23.73,35.68,35.73,10.68,10.86,12,26.68,3.6,39.36-8.2,12.34-24.19,17.75-37.76,12.15a36.55,36.55,0,0,1-11.34-7.87q-47.55-47.17-94.78-94.67a47.13,47.13,0,0,1-3.66-4.68c-54.88,39.44-114.57,53.82-179.89,40.69-56-11.25-101.28-40.45-135.21-86.29-66.65-90-56.13-215.74,23.19-293a224.78,224.78,0,0,1,295.47-16.1C450.47,116.62,481.17,252.37,403,358.35Zm-19.1-134.62c0-88.32-71.73-160-160.07-160a160,160,0,0,0,.06,320C312.24,383.81,384,312,383.95,223.74Z"/></g></g></svg>