<svg xmlns="http://www.w3.org/2000/svg" viewBox="0 0 512.11 576.3"><defs><style>.cls-1{fill:#666;}</style></defs><title>share</title><g id="Слой_2" data-name="Слой 2"><g id="Layer_1" data-name="Layer 1"><path class="cls-1" d="M357.58,172.21l-70.75,42.47q-46,27.63-92.12,55.18c-2.87,1.71-3.75,3.34-3.59,6.67.37,7.79.3,15.61,0,23.4-.11,2.88.51,4.52,3,6q80.14,48,160.14,96.16c2.9,1.75,4.58.95,7-.71,57.82-39.92,137.67-7.6,149.5,63.26,8.71,52.18-26,100.26-77.83,110-51.24,9.65-102.35-25.77-111-77.4-1.54-9.24-1.05-18.85-1-28.29,0-3.37-.51-5.35-3.62-7.2q-79.75-47.64-159.3-95.59c-2.7-1.63-4.46-1.42-7,.36-48.14,33.27-112.37,17.53-140.12-34.23C-7.27,298.43-2.41,256,23.11,225.77,47.87,196.49,89.2,184.45,125,196.84c9.16,3.17,17.67,8.31,26.25,13,2.55,1.39,4.21,1.69,6.7.19q51.54-31.08,103.18-62c18.41-11.05,36.74-22.26,55.31-33,4.08-2.36,4.82-4.93,4.44-9.22-3.2-35.69,9.62-64.71,37.81-86.49C413.5-23.08,496.34,8.15,510,76.07c10.08,50.08-19.25,99-67.67,112.28C411.84,196.69,383.67,191.06,357.58,172.21Z"/></g></g></svg>