<svg xmlns="http://www.w3.org/2000/svg" viewBox="0 0 409.77 239.07"><defs><style>.cls-1{fill:#fff;}</style></defs><title>social-icon-vk</title><g id="Слой_2" data-name="Слой 2"><g id="Layer_1" data-name="Layer 1"><path class="cls-1" d="M145.39.35h95.26V6.43q0,46.49,0,93c0,2.17-.38,4.45.18,6.47.88,3.18,1.76,8.1,3.83,8.81,3,1,8,.08,10.46-2A167.09,167.09,0,0,0,275.28,92c20.6-25.68,36.94-54,50.74-83.86,1.89-4.09,4-5.85,8.81-5.75,17.49.36,35,.11,52.49.15,10.66,0,15.56,5.58,11.47,15.24a341.3,341.3,0,0,1-21.33,42.65c-11.38,18.95-24.19,37-36.37,55.51-1,1.53-1.92,3.12-2.82,4.71-3.88,6.82-3.72,9.7,1.68,15.64,8.41,9.23,17.4,18,25.48,27.46,12.6,14.81,24.9,29.9,36.74,45.31,3.42,4.46,5.53,10.27,7,15.79,2.3,8.58-2.19,14-11.09,14-18.66.13-37.33.14-56-.16-2.42,0-5.29-1.72-7.14-3.48-18.19-17.36-36-35.18-54.43-52.22-5.74-5.3-12.94-9.43-20.12-12.66-11.67-5.25-18.41-.47-18.54,12.3-.14,13.33,0,26.66,0,40,0,8-2.95,12.13-10.79,13.89-17.87,4-35.78,3-53.38-1.44-33.4-8.49-61.11-26.84-84.37-51.68C60.35,148.24,35.62,107.53,15.86,63.74,8.89,48.28,3.16,32.36.32,15.53-1.29,6,3.2.22,12.79.16,32,0,51.12.22,70.28,0c3.37,0,4.59,1.2,5.48,4.12,10.15,33.06,24,64.52,43.21,93.29,7.34,11,16.49,20.77,25.12,30.85,2,2.29,5,3.84,7.86,5.12,5.21,2.35,8.87.26,9.72-5.37a60,60,0,0,0,.47-9q0-35.24-.17-70.48a41.8,41.8,0,0,0-10.39-27.89C146.62,14.92,143,8.77,145.39.35Z"/></g></g></svg>