<svg xmlns="http://www.w3.org/2000/svg" viewBox="0 0 222.21 154.38"><defs><style>.cls-1{fill:#fff;}</style></defs><title>social-icon-youtube</title><g id="Слой_2" data-name="Слой 2"><g id="Layer_1" data-name="Layer 1"><path class="cls-1" d="M95.36.61a214.88,214.88,0,0,1,32.43,0c23.06,1.75,46,3.43,69,5.54,15.26,1.4,21.1,9.09,22.92,26.76a413.55,413.55,0,0,1,1.92,67.27c-.62,10.28-1.71,20.55-3.17,30.74s-10.06,16.64-22.14,18.1c-36.42,4.41-73,6.45-109.6,4.77-22-1-44-3.66-66-5.93C12.38,147,4.93,139.31,3.83,131,.15,103-1.38,75,1.51,46.86c.65-6.28,1.22-12.57,2-18.83,1.85-14.13,7.83-20.6,22-21.87C48.77,4.06,72.06,2.36,95.36.61ZM90.63,77.72c0,9.83,0,19.66,0,29.49,0,3.2-.49,7.15,3.18,8.06,2.36.58,5.77-.7,7.94-2.23,13.59-9.58,27-19.46,40.4-29.26,5.5-4,5.55-7.65,0-11.73-13.68-10-27.35-20-41.21-29.82-1.91-1.34-5.35-2.36-7.12-1.51s-3,4.22-3,6.52C90.45,57.39,90.63,67.56,90.63,77.72Z"/></g></g></svg>