<svg xmlns="http://www.w3.org/2000/svg" viewBox="0 0 511.91 511.91"><defs><style>.cls-1{fill:#666;}</style></defs><title>time</title><g id="Слой_2" data-name="Слой 2"><g id="Layer_1" data-name="Layer 1"><path class="cls-1" d="M255.51,511.91C114.8,511.79-.18,396.24,0,255.13.18,114.77,115.77-.15,256.63,0c140.6.15,255.59,115.91,255.29,257C511.61,397.13,396,512,255.51,511.91ZM256.06,51C143.73,50.91,51.35,143.05,51,255.52s92.13,205.15,204.79,205.38c112.33.23,205.31-92.73,205.12-205.08S368.41,51.08,256.06,51Z"/><path class="cls-1" d="M383.79,330.31l-20.32,33c-10.28-6.29-20.31-12.4-30.31-18.55-32.57-20-65.09-40.15-97.74-60.06-3.72-2.27-5.1-4.68-5.08-9.1.18-47.14.11-94.27.11-141.41v-6H268.8V134c0,40.64.07,81.28-.1,121.92,0,4.06,1.4,6.17,4.74,8.16q53.56,31.9,107,64.06C381.37,328.71,382.32,329.36,383.79,330.31Z"/></g></g></svg>